<svg xmlns="http://www.w3.org/2000/svg" width="1000" height="1000" fill="none" viewBox="0 0 1000 1000"><g clip-path="url(#a)"><rect width="1000" height="1000" fill="#fff"/><path stroke="#000" stroke-width="10" d="M483.702 654C474.677 710.326 555.321 887.742 575.088 909.04C594.855 930.338 596.216 978.554 594.425 1000"/><path stroke="#000" stroke-width="10" d="M796.946 637C799.058 599.03 802.186 537.786 804 489.464M710 179.336C721.993 149.226 776.959 155.248 786.953 171.307C793.474 181.785 797.868 274.744 800.966 343.934"/><path stroke="#000" stroke-width="10" d="M730 585C724 519 723.2 426.645 724 414.645C725 399.645 720 185.645 705 179.645C690 173.645 634 159.645 630 196.645C626 233.645 631 406.645 634 410.645C637 414.645 640 540 614 561"/><path stroke="#000" stroke-width="10" d="M573.138 553.648C585.077 548.856 603.98 555.645 611.94 559.638C634.16 596.574 679.197 673.242 681.585 684.423C684.569 698.399 698.498 780.258 692.529 794.234C686.559 808.21 632.833 800.224 625.869 794.234C618.904 788.244 611.94 711.377 602.986 703.39C594.031 695.404 544.285 601.566 541.3 591.583C538.315 581.6 558.214 559.638 573.138 553.648Z"/><path stroke="#000" stroke-width="10" d="M541.021 589.34C501.171 561.708 467.238 602.015 468.038 624.549C466.438 633.401 516.027 698.655 541.021 730.176C546.687 756.331 559.817 809.245 567.016 811.659C576.013 814.677 610.006 820.713 635 801.599"/><path stroke="#000" stroke-width="10" d="M631.859 342L37.5917 347.513C-3.32407 405.957 20.5435 470.189 37.5917 495C196.77 494.651 433.311 488.719 631.859 488.595M721.144 342H971.056C1002.43 405.405 971.056 489.487 971.056 489.487C971.056 489.487 933.189 489.487 907.74 488.763M725.157 488.56C769.099 488.553 790.705 488.566 826.48 488.604"/><path stroke="#000" stroke-width="10" d="M784.981 1003C785.98 979.248 789.777 928.532 796.97 915.685C805.961 899.628 888.879 816.327 900.868 722.991C912.856 629.655 916.852 601.554 915.853 582.485C914.854 563.416 905.863 428.932 900.868 421.907C895.873 414.881 848.919 405.849 830.936 470.08C816.55 521.465 822.944 542.34 822.944 582.485C808.958 617.612 773.992 672.81 766 722.991"/><path stroke="#000" stroke-width="10" d="M605 342C611.037 371.292 619.489 441.9 605 490"/><path stroke="#000" stroke-width="10" d="M42 349C60.8656 376.547 87.2774 444.313 42 495"/></g><defs><clipPath id="a"><rect width="1000" height="1000" fill="#fff"/></clipPath></defs></svg>